<svg version="1.1" xmlns="http://www.w3.org/2000/svg" xmlns:xlink="http://www.w3.org/1999/xlink" x="0px" y="0px" width="100%" viewBox="0 0 1920 720" xml:space="preserve">
<style type="text/css">
	.bg{fill:#0F1C23;}
	.main{fill:#FFFFFF;}
	.bg-border{fill:#5FB3B3;}
	.say-my-name{fill:#FFFFFF;}
	.sudden-change{fill:#5FB3B3;}
	.words{fill:#D8DEE9;}
  .say-my-name{
    animation: sayMyName 7s infinite;
  }
  .sudden-change{
    animation: suddenChange 7s infinite;
  }
  @keyframes sayMyName {
    from { transform: skewX(0deg) skewY(0deg); fill: #ffffff; opacity: 1; }
    33% { transform: skewX(0deg) skewY(0deg); fill: #ffffff; opacity: 1;}
    34% { transform: skewX(5deg) skewY(1deg); fill: #c5a5c5; }
    35% { transform: skewX(-5deg) skewY(-1deg); fill: #5FB3B3; }
    36% { transform: skewX(5deg) skewY(1deg); fill: #fac863;  }
    37% { transform: skewX(-5deg) skewY(-1deg); fill: #c5a5c5; }
    38% { transform: skewX(0deg) skewY(0deg); fill: #0F1C23; opacity: 0;}
    64% { transform: skewX(0deg) skewY(0deg); fill: #0F1C23; opacity: 0;}
    65% { transform: skewX(5deg) skewY(1deg); fill: #c5a5c5; }
    66% { transform: skewX(-5deg) skewY(-1deg); fill: #5FB3B3; }
    67% { transform: skewX(5deg) skewY(1deg); fill: #fac863;  }
    68% { transform: skewX(-5deg) skewY(-1deg); fill: #c5a5c5; }
    69% { transform: skewX(0deg) skewY(0deg); fill: #ffffff; opacity: 1;}
    to { transform: skewX(0deg) skewY(0deg); fill: #ffffff; opacity: 1;}
  }
  @keyframes suddenChange {
    from { transform: skewX(0deg) skewY(0deg); fill: #0F1C23; opacity: 0; }
    33% { transform: skewX(0deg) skewY(0deg); fill: #0F1C23; opacity: 0;}
    34% { transform: skewX(-5deg) skewY(-1deg); fill: #fac863; }
    35% { transform: skewX(5deg) skewY(1deg); fill: #5FB3B3; }
    36% { transform: skewX(-5deg) skewY(-1deg); fill: #c5a5c5;  }
    37% { transform: skewX(5deg) skewY(1deg); fill: #fac863; }
    38% { transform: skewX(0deg) skewY(0deg); fill: #5FB3B3; opacity: 1;}
    64% { transform: skewX(0deg) skewY(0deg); fill: #5FB3B3; opacity: 1;}
    65% { transform: skewX(-5deg) skewY(-1deg); fill: #fac863; }
    66% { transform: skewX(5deg) skewY(1deg); fill: #5FB3B3; }
    67% { transform: skewX(-5deg) skewY(-1deg); fill: #c5a5c5;  }
    68% { transform: skewX(5deg) skewY(1deg); fill: #fac863s; }
    69% { transform: skewX(0deg) skewY(0deg); fill: #0F1C23; opacity: 0;}
    to { transform: skewX(0deg) skewY(0deg); fill: #0F1C23; opacity: 0;}
  }
</style>
<defs>
</defs>
<g class="stage">
  <rect class="bg" width="1920" height="720"/>
  <path class="bg-border" d="M1900,700H20V20h1880V700z M0,0v720h1920V0H0z"/>
</g>
<g class="main">
  <path d="M164.9,298.6h-17.1v25.8h-11.2v-59.5h11.2v25.2h17.1v-25.2h11.3v59.5h-11.3V298.6z"/>
  <path d="M188.3,301.4c0-14.7,10.8-26,23.3-26c13.4,0,19.9,10.6,18.1,27.2l-30.8,0.9c1.2,9.6,8.4,12.8,29.5,13.2
    l-1.1,8.9C196.4,325.9,188.3,316.9,188.3,301.4z M198.8,297.1c5.1-0.2,14.8-0.5,20.7-0.7c-0.3-7.6-3.3-12.3-9.9-12.3
    C203.1,284.1,199.3,288.1,198.8,297.1z"/>
  <path d="M242.2,324.4v-8.1H257v-50.7l-14.3-0.8l1-7.6h24.1v59h14.8l-0.9,8.1H242.2z"/>
  <path d="M295,324.4v-8.1h14.8v-50.7l-14.3-0.8l1-7.6h24.1v59h14.8l-0.9,8.1H295z"/>
  <path d="M345.8,301.7c0-15.6,10.7-26.5,23.3-26.5c12,0,20.3,8.7,20.3,24.3c0,15.9-10.6,26.4-23.3,26.4
    C354.3,325.9,345.8,317.1,345.8,301.7z M378.6,301.4c0-11.5-4.4-17.5-11.3-17.5c-6.4,0-10.7,5.3-10.7,15.7
    c0,11.6,4.4,17.6,11.3,17.6C374.4,317.2,378.6,311.9,378.6,301.4z"/>
  <path d="M412.6,310.8l13.7-0.7c4.3,10.8-1.2,23.2-9.6,30.8l-5.7-1.6C416.6,332.3,417.5,320.9,412.6,310.8z"/>
  <path d="M531.6,315.9h14.2l-0.8,8.5h-38.2v-8.5h13.7v-42.4h-13.7v-8.5h38.5v8.5h-13.7V315.9z"/>
  <path d="M574.6,289l-0.4-29.3H587l0.4,4.3l-5.5,25H574.6z"/>
  <path d="M619.3,287c0.2,8.9,0.3,21.7,0.3,37.4h-9.9c0-21.5,0-36.6-0.4-47.4l9.1-0.6l0.4,4.1c2.6-2.9,6-5.2,9.9-5.2
    c3.7,0,6,1.9,6.9,5.2c2.6-2.9,6-5.2,10.2-5.2c5.5,0,8.2,3.8,8.2,10.9v38.1h-9.9v-34.4c0-4.1-1.2-5.6-3.6-5.6
    c-1.7,0-3.3,0.8-4.7,2.2v37.7h-7.6V290c0-4-1.1-5.5-3.5-5.5C622.9,284.5,621,285.4,619.3,287z"/>
  <path d="M718,324.4v-59.5c30.6-4,41.6,5.4,41.6,28.6C759.6,316.7,746.7,328.5,718,324.4z M728.8,273.4v42.4
    c14.6,2.1,19.6-4.7,19.6-20.6C748.4,279.2,743.6,271.7,728.8,273.4z"/>
  <path d="M799.3,319c-3.6,3.6-8.7,6.7-15.6,6.7c-8.5,0-14.4-4.7-14.4-12.5c0-9.6,9-17.3,29.2-16.4
    c-0.6-9.2-5.9-11.4-26.4-12.1l1.1-9c28.8,0.5,36,6.4,36,25.1c0,9.3,0.4,16.9,0.9,23.5l-9.8,0.5C800.1,324.3,799.6,321.3,799.3,319
    z M798.8,313.7c-0.2-2.8-0.2-6-0.3-9.9c-14.8-1.5-18.7,1.6-18.7,6.9c0,4.2,3.2,6.7,8.1,6.7C791.5,317.4,795.5,316,798.8,313.7z"/>
  <path d="M855.4,276.6h10.8c-4.9,15.9-10.8,32.3-16.9,48.2h-13c-6-15.8-11.6-32.1-16.6-47.8l10.8-0.8
    c3.7,12.4,7.8,25.2,12.3,37.8h0.7C847.8,301.6,851.7,288.9,855.4,276.6z"/>
  <path d="M875.7,324.4v-8.1h16.6V285l-16.8-0.8l0.9-7.6h26.7v39.7h16.6l-0.9,8.1H875.7z M891.7,269.4l0.7-13.4h11.2
    l-0.9,13.4H891.7z"/>
  <path d="M957.3,319.9c-3.3,3.2-7.7,5.8-13.2,5.8c-10.1,0-17.5-8.4-17.5-22.6c0-17.7,12.4-27.7,27.5-27.7
    c0.8,0,1.4,0,2.2,0.1v-18.3l10.7-1v20.4c0,22.4,0.2,37.1,0.7,47.6l-9.9,0.6L957.3,319.9z M956.7,314c-0.2-7.4-0.3-16.7-0.3-28.2
    c-2.4-0.8-4.7-1.2-6.8-1.2c-7.3,0-12.4,5.4-12.4,15.9c0,11.3,4.7,16.5,11.3,16.5C951.7,316.9,954.4,315.8,956.7,314z"/>
  <path d="M1520.9,324.4l0.7-13.4h14.7l-0.7,13.4H1520.9z"/>
</g>
<g class="say-my-name">
  <path d="M1037.6,324.4v-59.5h11v50.3h26.9l-1,9.2H1037.6z"/>
  <path d="M1085.9,301.4c0-14.7,10.8-26,23.3-26c13.4,0,19.9,10.6,18.1,27.2l-30.8,0.9c1.2,9.6,8.4,12.8,29.5,13.2
    l-1.1,8.9C1094,325.9,1085.9,316.9,1085.9,301.4z M1096.4,297.1c5.1-0.2,14.8-0.5,20.7-0.7c-0.3-7.6-3.3-12.3-9.9-12.3
    C1100.7,284.1,1096.9,288.1,1096.4,297.1z"/>
  <path d="M1139.7,324.4v-8.1h16.6V285l-16.8-0.8l0.9-7.6h26.7v39.7h16.6l-0.9,8.1H1139.7z M1155.7,269.4l0.7-13.4h11.2
    l-0.9,13.4H1155.7z"/>
  <path d="M1203.7,287.7c0.2,8.9,0.4,21.4,0.4,36.8h-10.8c0-21.5-0.2-36.6-0.8-47.4l9.9-0.6l0.6,5.5
    c3.8-3.5,8.7-6.5,15.4-6.5c8.4,0,13.7,4.9,13.7,16.5v32.5h-10.7v-28.8c0-8.4-3.2-11.1-8.1-11.1
    C1209.8,284.5,1206.7,285.7,1203.7,287.7z"/>
  <path d="M1245.3,324.4v-8.1h16.6V285l-16.8-0.8l0.9-7.6h26.7v39.7h16.6l-0.9,8.1H1245.3z M1261.3,269.4l0.7-13.4h11.2
    l-0.9,13.4H1261.3z"/>
  <path d="M1309.3,287.7c0.2,8.9,0.4,21.4,0.4,36.8H1299c0-21.5-0.2-36.6-0.8-47.4l9.9-0.6l0.6,5.5
    c3.8-3.5,8.7-6.5,15.4-6.5c8.4,0,13.7,4.9,13.7,16.5v32.5h-10.7v-28.8c0-8.4-3.2-11.1-8.1-11.1
    C1315.4,284.5,1312.3,285.7,1309.3,287.7z"/>
  <path d="M1355.1,331.6c21.2-1.7,23.7-3.4,24-15.5c-3.2,2.3-7.2,4-12.3,4c-10,0-17.6-7.6-17.6-19.9
    c0-15.2,11.8-24.9,25.9-24.9c4.8,0,9.6,0.9,14.4,2.3c0.2,5.3,0.3,25.9,0.3,33.7c0,17.5-6.5,28.4-33.8,29.8L1355.1,331.6z
      M1379.1,309.8v-24.1c-2.7-0.8-5.3-1.2-7.8-1.2c-6.8,0-11.5,4.5-11.5,13.3c0,9.5,4.9,14,11.1,14
    C1373.7,311.9,1376.5,311.1,1379.1,309.8z"/>
  <path d="M1402.6,301.4c0-14.7,10.8-26,23.3-26c13.4,0,19.9,10.6,18.1,27.2l-30.8,0.9c1.2,9.6,8.4,12.8,29.5,13.2
    l-1.1,8.9C1410.8,325.9,1402.6,316.9,1402.6,301.4z M1413.2,297.1c5.1-0.2,14.8-0.5,20.7-0.7c-0.3-7.6-3.3-12.3-9.9-12.3
    C1417.5,284.1,1413.7,288.1,1413.2,297.1z"/>
  <path d="M1456.3,324.4v-8.1h11.6c-0.2-13-0.3-22.9-0.5-31.4l-11.3-0.8l0.9-7.6h19.8c0.1,0.5,0.7,5.9,0.9,8.3
    c4.3-5,11.1-8.9,20.2-10.1l0.5,11.3c-8.3,0.5-14.9,2.2-20.3,4.8c0.2,7.2,0.3,15.3,0.5,25.4h14.5l-0.9,8.1H1456.3z"/>
</g>
<g class="sudden-change">
  <path d="M1037.6,324.4v-59.5h11v50.3h26.9l-1,9.2H1037.6z"/>
  <path d="M1086.9,324.4v-8.1h16.6V285l-16.8-0.8l0.9-7.6h26.7v39.7h16.6l-0.9,8.1H1086.9z M1102.9,269.4l0.7-13.4h11.2
    l-0.9,13.4H1102.9z"/>
  <path d="M1150.9,287.7c0.2,8.9,0.4,21.4,0.4,36.8h-10.8c0-21.5-0.2-36.6-0.8-47.4l9.9-0.6l0.6,5.5
    c3.8-3.5,8.7-6.5,15.4-6.5c8.4,0,13.7,4.9,13.7,16.5v32.5h-10.7v-28.8c0-8.4-3.2-11.1-8.1-11.1
    C1157,284.5,1153.9,285.7,1150.9,287.7z"/>
  <path d="M1192.5,324.4v-8.1h16.6V285l-16.8-0.8l0.9-7.6h26.7v39.7h16.6l-0.9,8.1H1192.5z M1208.5,269.4l0.7-13.4h11.2
    l-0.9,13.4H1208.5z"/>
  <path d="M1256.5,287.7c0.2,8.9,0.4,21.4,0.4,36.8h-10.8c0-21.5-0.2-36.6-0.8-47.4l9.9-0.6l0.6,5.5
    c3.8-3.5,8.7-6.5,15.4-6.5c8.4,0,13.7,4.9,13.7,16.5v32.5h-10.7v-28.8c0-8.4-3.2-11.1-8.1-11.1
    C1262.6,284.5,1259.5,285.7,1256.5,287.7z"/>
  <path d="M1302.3,331.6c21.2-1.7,23.7-3.4,24-15.5c-3.2,2.3-7.2,4-12.3,4c-10,0-17.6-7.6-17.6-19.9
    c0-15.2,11.8-24.9,25.9-24.9c4.8,0,9.6,0.9,14.4,2.3c0.2,5.3,0.3,25.9,0.3,33.7c0,17.5-6.5,28.4-33.8,29.8L1302.3,331.6z
      M1326.3,309.8v-24.1c-2.7-0.8-5.3-1.2-7.8-1.2c-6.8,0-11.5,4.5-11.5,13.3c0,9.5,4.9,14,11.1,14
    C1320.9,311.9,1323.7,311.1,1326.3,309.8z"/>
  <path d="M1385.7,300.4h-30v-9.1h30.7L1385.7,300.4z"/>
  <path d="M1402.6,301.4c0-14.7,10.8-26,23.3-26c13.4,0,19.9,10.6,18.1,27.2l-30.8,0.9c1.2,9.6,8.4,12.8,29.5,13.2
    l-1.1,8.9C1410.8,325.9,1402.6,316.9,1402.6,301.4z M1413.2,297.1c5.1-0.2,14.8-0.5,20.7-0.7c-0.3-7.6-3.3-12.3-9.9-12.3
    C1417.5,284.1,1413.7,288.1,1413.2,297.1z"/>
  <path d="M1456.3,324.4v-8.1h11.6c-0.2-13-0.3-22.9-0.5-31.4l-11.3-0.8l0.9-7.6h19.8c0.1,0.5,0.7,5.9,0.9,8.3
    c4.3-5,11.1-8.9,20.2-10.1l0.5,11.3c-8.3,0.5-14.9,2.2-20.3,4.8c0.2,7.2,0.3,15.3,0.5,25.4h14.5l-0.9,8.1H1456.3z"/>
</g>
<g class="words">
  <path d="M140.8,398.2h-3.7v-29.4h3.7V398.2z"/>
  <path d="M175.4,380.9v-13h3.4v30.2h-3.4v-2.7c-1.6,1.9-3.9,3.1-7,3.1c-5.6,0-10-4.4-10-10.4s4.4-10.4,10-10.4
    C171.5,377.8,173.8,379,175.4,380.9z M161.9,388.2c0,4,2.8,7.2,6.9,7.2c4,0,6.8-3.1,6.8-7.2c0-4.1-2.8-7.2-6.8-7.2
    C164.6,381,161.9,384.2,161.9,388.2z"/>
  <path d="M203.9,388.1c0,0.4,0,0.9-0.1,1.3h-15.7c0.5,4.1,3.4,6.2,6.8,6.2c2.3,0,4.5-0.9,6.2-2.4l1.8,2.4
    c-2.5,2.3-5.2,3-8.2,3c-5.9,0-10.1-4.2-10.1-10.4c0-6.1,4.2-10.4,9.9-10.4C199.9,377.8,203.8,382,203.9,388.1z M188.2,386.6h12.2
    c-0.4-3.5-2.7-5.8-5.9-5.8C190.9,380.8,188.7,383.2,188.2,386.6z"/>
  <path d="M223.1,382.6c-1.3-0.9-3.8-1.8-6.4-1.8c-2.7,0-4.5,1.2-4.5,3c0,1.6,1.4,2.3,3.9,2.6l2.3,0.3
    c4.2,0.6,6.7,2.4,6.7,5.6c0,3.8-3.4,6.3-8.8,6.3c-2.5,0-5.8-0.6-8.4-2.6l1.6-2.6c1.5,1.2,3.5,2.1,6.8,2.1c3.3,0,5.3-1.1,5.3-3
    c0-1.5-1.3-2.4-4-2.7l-2.3-0.3c-4.5-0.5-6.6-2.6-6.6-5.6c0-3.8,3.2-6.1,8-6.1c3.1,0,6,0.8,8,2.2L223.1,382.6z"/>
  <path d="M234.6,371.2c0,1.4-1.1,2.4-2.5,2.4s-2.4-1-2.4-2.4c0-1.4,1-2.5,2.4-2.5S234.6,369.8,234.6,371.2z
      M233.9,398.2h-3.4v-19.9h3.4V398.2z"/>
  <path d="M256.4,380.9v-2.7h3.4v18.6c0,6.4-4.3,10.1-10.6,10.1c-3.1,0-6.3-0.9-8.4-2.6l1.5-2.8
    c1.9,1.4,4.3,2.2,6.9,2.2c4.3,0,7.2-2.4,7.2-6.8v-1.8c-1.5,1.9-3.8,3.1-6.9,3.1c-5.6,0-9.9-4.2-9.9-10.2c0-6.1,4.3-10.2,9.9-10.2
    C252.6,377.8,254.9,379,256.4,380.9z M243.2,388c0,3.9,2.7,7,6.8,7c4,0,6.8-3,6.8-7c0-4-2.8-7-6.8-7
    C245.8,381,243.2,384.2,243.2,388z"/>
  <path d="M285.4,385.8v12.4h-3.4v-11.3c0-3.7-2-5.8-5.5-5.8c-3.2,0-5.9,2.2-5.9,5.9v11.2h-3.4v-19.9h3.4v2.6
    c1.6-2.2,4.2-3,6.5-3C282,377.8,285.4,381,285.4,385.8z"/>
  <path d="M322.6,398.2h-3.4v-2.7c-1.6,1.9-3.9,3.1-7,3.1c-5.6,0-10-4.4-10-10.4s4.4-10.4,10-10.4c3.1,0,5.5,1.2,7,3.1
    v-2.7h3.4V398.2z M305.7,388.2c0,4,2.8,7.2,6.9,7.2c4,0,6.8-3.1,6.8-7.2c0-4.1-2.8-7.2-6.8-7.2C308.4,381,305.7,384.2,305.7,388.2
    z"/>
  <path d="M348.1,385.8v12.4h-3.4v-11.3c0-3.7-2-5.8-5.5-5.8c-3.2,0-5.9,2.2-5.9,5.9v11.2h-3.4v-19.9h3.4v2.6
    c1.6-2.2,4.2-3,6.5-3C344.7,377.8,348.1,381,348.1,385.8z"/>
  <path d="M370.7,380.9v-13h3.4v30.2h-3.4v-2.7c-1.6,1.9-3.9,3.1-7,3.1c-5.6,0-10-4.4-10-10.4s4.4-10.4,10-10.4
    C366.8,377.8,369.1,379,370.7,380.9z M357.2,388.2c0,4,2.8,7.2,6.9,7.2c4,0,6.8-3.1,6.8-7.2c0-4.1-2.8-7.2-6.8-7.2
    C359.9,381,357.2,384.2,357.2,388.2z"/>
  <path d="M413,388.2c0,6-4.4,10.4-10,10.4c-3.1,0-5.5-1.2-7-3.1v2.7h-3.4v-30.2h3.4v13c1.6-1.9,3.9-3.1,7-3.1
    C408.7,377.8,413,382.2,413,388.2z M395.8,388.2c0,4.1,2.8,7.2,6.8,7.2c4.1,0,6.8-3.2,6.8-7.2s-2.8-7.2-6.8-7.2
    C398.6,381,395.8,384.1,395.8,388.2z"/>
  <path d="M436.8,389.8c0,6-4.3,8.8-9.1,8.8c-4.8,0-9.1-2.8-9.1-8.8v-11.6h3.4v11.3c0,4.1,2.4,5.9,5.7,5.9
    c3.2,0,5.6-1.8,5.6-5.9v-11.3h3.4V389.8z"/>
  <path d="M448,371.2c0,1.4-1.1,2.4-2.5,2.4c-1.4,0-2.4-1-2.4-2.4c0-1.4,1-2.5,2.4-2.5C446.9,368.7,448,369.8,448,371.2
    z M447.3,398.2h-3.4v-19.9h3.4V398.2z"/>
  <path d="M458,398.2h-3.4v-30.2h3.4V398.2z"/>
  <path d="M480.7,380.9v-13h3.4v30.2h-3.4v-2.7c-1.6,1.9-3.9,3.1-7,3.1c-5.6,0-10-4.4-10-10.4s4.4-10.4,10-10.4
    C476.8,377.8,479.2,379,480.7,380.9z M467.2,388.2c0,4,2.8,7.2,6.9,7.2c4,0,6.8-3.1,6.8-7.2c0-4.1-2.8-7.2-6.8-7.2
    C469.9,381,467.2,384.2,467.2,388.2z"/>
  <path d="M515.9,381.3h-8.4v9.7c0,3,1.6,4.3,3.8,4.3c1.5,0,2.9-0.6,4.1-1.3l1.6,2.6c-1.5,1.1-3.5,2-6,2
    c-4.3,0-6.9-2.4-6.9-7.5v-9.8h-4.3v-3.1h4.3V372h3.4v6.3h8.4V381.3z"/>
  <path d="M524.8,380.8c1.6-2.2,4.2-3,6.5-3c4.9,0,8.3,3.2,8.3,8v12.4h-3.4v-11.3c0-3.7-2-5.8-5.5-5.8
    c-3.2,0-5.9,2.2-5.9,5.9v11.2h-3.4v-30.2h3.4V380.8z"/>
  <path d="M550.8,371.2c0,1.4-1.1,2.4-2.5,2.4c-1.4,0-2.4-1-2.4-2.4c0-1.4,1-2.5,2.4-2.5
    C549.8,368.7,550.8,369.8,550.8,371.2z M550.1,398.2h-3.4v-19.9h3.4V398.2z"/>
  <path d="M575.6,385.8v12.4h-3.4v-11.3c0-3.7-2-5.8-5.5-5.8c-3.2,0-5.9,2.2-5.9,5.9v11.2h-3.4v-19.9h3.4v2.6
    c1.6-2.2,4.2-3,6.5-3C572.2,377.8,575.6,381,575.6,385.8z"/>
  <path d="M597.9,380.9v-2.7h3.4v18.6c0,6.4-4.3,10.1-10.6,10.1c-3.1,0-6.3-0.9-8.4-2.6l1.5-2.8
    c1.9,1.4,4.3,2.2,6.9,2.2c4.3,0,7.2-2.4,7.2-6.8v-1.8c-1.5,1.9-3.8,3.1-6.9,3.1c-5.6,0-9.9-4.2-9.9-10.2c0-6.1,4.3-10.2,9.9-10.2
    C594.1,377.8,596.4,379,597.9,380.9z M584.7,388c0,3.9,2.7,7,6.8,7c4,0,6.8-3,6.8-7c0-4-2.8-7-6.8-7
    C587.4,381,584.7,384.2,584.7,388z"/>
  <path d="M622.1,382.6c-1.3-0.9-3.8-1.8-6.4-1.8c-2.7,0-4.5,1.2-4.5,3c0,1.6,1.4,2.3,3.9,2.6l2.3,0.3
    c4.2,0.6,6.7,2.4,6.7,5.6c0,3.8-3.4,6.3-8.8,6.3c-2.5,0-5.8-0.6-8.4-2.6l1.6-2.6c1.5,1.2,3.5,2.1,6.8,2.1c3.3,0,5.3-1.1,5.3-3
    c0-1.5-1.3-2.4-4-2.7l-2.3-0.3c-4.5-0.5-6.6-2.6-6.6-5.6c0-3.8,3.2-6.1,8-6.1c3.1,0,6,0.8,8,2.2L622.1,382.6z"/>
  <path d="M653.4,381.3h-7.7v16.8h-3.4v-16.8h-4.4v-3.1h4.4v-3.4c0-4.2,1.9-7.3,6.6-7.3c2.3,0,4.1,0.6,5.5,1.5l-1.2,2.9
    c-1.1-0.6-2.5-1.2-4-1.2c-2.4,0-3.4,1.5-3.4,4.1v3.4h7.7V381.3z"/>
  <path d="M677.3,388.2c0,5.9-4.5,10.4-10.6,10.4s-10.5-4.5-10.5-10.4s4.5-10.4,10.5-10.4S677.3,382.3,677.3,388.2z
      M659.7,388.2c0,4.2,3,7.2,7,7.2c4,0,7-3,7-7.2s-3-7.2-7-7.2C662.7,381,659.7,384,659.7,388.2z"/>
  <path d="M695.9,378.4l-0.8,3.4c-0.9-0.5-2.3-0.8-3.4-0.8c-3,0-5.2,2.3-5.2,6v11.1H683v-19.9h3.4v2.6
    c1.4-2,3.5-3,5.8-3C693.7,377.8,694.8,378,695.9,378.4z"/>
  <path d="M724.6,381.3h-8.4v9.7c0,3,1.6,4.3,3.8,4.3c1.5,0,2.9-0.6,4.1-1.3l1.6,2.6c-1.5,1.1-3.5,2-6,2
    c-4.3,0-6.9-2.4-6.9-7.5v-9.8h-4.3v-3.1h4.3V372h3.4v6.3h8.4V381.3z"/>
  <path d="M733.5,380.8c1.6-2.2,4.2-3,6.5-3c4.9,0,8.3,3.2,8.3,8v12.4h-3.4v-11.3c0-3.7-2-5.8-5.5-5.8
    c-3.2,0-5.9,2.2-5.9,5.9v11.2h-3.4v-30.2h3.4V380.8z"/>
  <path d="M773.2,388.1c0,0.4,0,0.9-0.1,1.3h-15.7c0.5,4.1,3.4,6.2,6.8,6.2c2.3,0,4.5-0.9,6.2-2.4l1.8,2.4
    c-2.5,2.3-5.2,3-8.2,3c-5.9,0-10.1-4.2-10.1-10.4c0-6.1,4.2-10.4,9.9-10.4C769.3,377.8,773.2,382,773.2,388.1z M757.5,386.6h12.2
    c-0.4-3.5-2.7-5.8-5.9-5.8C760.2,380.8,758,383.2,757.5,386.6z"/>
  <path d="M794.3,371.2c0,1.4-1.1,2.4-2.5,2.4s-2.4-1-2.4-2.4c0-1.4,1.1-2.5,2.4-2.5S794.3,369.8,794.3,371.2z
      M793.6,398.2h-3.4v-19.9h3.4V398.2z"/>
  <path d="M819.1,385.8v12.4h-3.4v-11.3c0-3.7-2-5.8-5.5-5.8c-3.2,0-5.9,2.2-5.9,5.9v11.2h-3.4v-19.9h3.4v2.6
    c1.6-2.2,4.2-3,6.5-3C815.7,377.8,819.1,381,819.1,385.8z"/>
  <path d="M839.5,381.3h-8.4v9.7c0,3,1.6,4.3,3.8,4.3c1.5,0,2.9-0.6,4.1-1.3l1.6,2.6c-1.5,1.1-3.5,2-6,2
    c-4.3,0-6.9-2.4-6.9-7.5v-9.8h-4.3v-3.1h4.3V372h3.4v6.3h8.4V381.3z"/>
  <path d="M862.7,388.1c0,0.4,0,0.9-0.1,1.3H847c0.5,4.1,3.4,6.2,6.8,6.2c2.3,0,4.5-0.9,6.2-2.4l1.8,2.4
    c-2.5,2.3-5.2,3-8.2,3c-5.9,0-10.1-4.2-10.1-10.4c0-6.1,4.2-10.4,9.9-10.4C858.8,377.8,862.7,382,862.7,388.1z M847,386.6h12.2
    c-0.4-3.5-2.7-5.8-5.9-5.8C849.7,380.8,847.5,383.2,847,386.6z"/>
  <path d="M881.3,378.4l-0.8,3.4c-0.9-0.5-2.3-0.8-3.4-0.8c-3,0-5.2,2.3-5.2,6v11.1h-3.4v-19.9h3.4v2.6
    c1.4-2,3.5-3,5.8-3C879.1,377.8,880.3,378,881.3,378.4z"/>
  <path d="M904.3,385.8v12.4h-3.4v-11.3c0-3.7-2-5.8-5.5-5.8c-3.2,0-5.9,2.2-5.9,5.9v11.2h-3.4v-19.9h3.4v2.6
    c1.6-2.2,4.2-3,6.5-3C900.9,377.8,904.3,381,904.3,385.8z"/>
  <path d="M929.2,388.1c0,0.4,0,0.9-0.1,1.3h-15.7c0.5,4.1,3.4,6.2,6.8,6.2c2.3,0,4.5-0.9,6.2-2.4l1.8,2.4
    c-2.5,2.3-5.2,3-8.2,3c-5.9,0-10.1-4.2-10.1-10.4c0-6.1,4.2-10.4,9.9-10.4C925.2,377.8,929.1,382,929.2,388.1z M913.4,386.6h12.2
    c-0.4-3.5-2.7-5.8-5.9-5.8C916.2,380.8,914,383.2,913.4,386.6z"/>
  <path d="M948.2,381.3h-8.4v9.7c0,3,1.6,4.3,3.8,4.3c1.5,0,2.9-0.6,4.1-1.3l1.6,2.6c-1.5,1.1-3.5,2-6,2
    c-4.3,0-6.9-2.4-6.9-7.5v-9.8h-4.3v-3.1h4.3V372h3.4v6.3h8.4V381.3z"/>
  <path d="M967.2,382.6c-1.3-0.9-3.8-1.8-6.4-1.8c-2.7,0-4.5,1.2-4.5,3c0,1.6,1.4,2.3,3.9,2.6l2.3,0.3
    c4.2,0.6,6.7,2.4,6.7,5.6c0,3.8-3.4,6.3-8.8,6.3c-2.5,0-5.8-0.6-8.4-2.6l1.6-2.6c1.5,1.2,3.5,2.1,6.8,2.1c3.3,0,5.3-1.1,5.3-3
    c0-1.5-1.3-2.4-4-2.7l-2.3-0.3c-4.5-0.5-6.6-2.6-6.6-5.6c0-3.8,3.2-6.1,8-6.1c3.1,0,6,0.8,8,2.2L967.2,382.6z"/>
  <path d="M979.4,395.7c0,1.6-1.3,2.9-2.9,2.9c-1.5,0-2.9-1.3-2.9-2.9c0-1.5,1.3-2.9,2.9-2.9
    C978,392.8,979.4,394.1,979.4,395.7z"/>
</g>
<g class="words">
  <path d="M150.7,433.4H145v14.8h-2.1v-14.8h-5.7v-2h13.6V433.4z"/>
  <path d="M155.2,438.2c0.9-1.3,2.4-1.7,3.7-1.7c2.8,0,4.7,1.8,4.7,4.6v7.1h-2v-6.4c0-2.1-1.2-3.3-3.1-3.3
    c-1.8,0-3.4,1.3-3.4,3.4v6.4h-2v-17.3h2V438.2z"/>
  <path d="M170,432.8c0,0.8-0.6,1.4-1.4,1.4c-0.8,0-1.4-0.6-1.4-1.4c0-0.8,0.6-1.4,1.4-1.4
    C169.4,431.4,170,432,170,432.8z M169.6,448.2h-2v-11.4h2V448.2z"/>
  <path d="M181.5,439.3c-0.7-0.5-2.2-1.1-3.7-1.1c-1.6,0-2.6,0.7-2.6,1.7c0,0.9,0.8,1.3,2.2,1.5l1.3,0.2
    c2.4,0.3,3.9,1.3,3.9,3.2c0,2.2-1.9,3.6-5,3.6c-1.4,0-3.3-0.3-4.8-1.5l0.9-1.5c0.9,0.7,2,1.2,3.9,1.2c1.9,0,3-0.6,3-1.7
    c0-0.8-0.7-1.4-2.3-1.6l-1.3-0.2c-2.6-0.3-3.8-1.5-3.8-3.2c0-2.2,1.8-3.5,4.6-3.5c1.8,0,3.4,0.5,4.5,1.2L181.5,439.3z"/>
  <path d="M194.5,432.8c0,0.8-0.6,1.4-1.4,1.4c-0.8,0-1.4-0.6-1.4-1.4c0-0.8,0.6-1.4,1.4-1.4
    C193.9,431.4,194.5,432,194.5,432.8z M194.1,448.2h-2v-11.4h2V448.2z"/>
  <path d="M205.9,439.3c-0.7-0.5-2.2-1.1-3.7-1.1c-1.6,0-2.6,0.7-2.6,1.7c0,0.9,0.8,1.3,2.2,1.5l1.3,0.2
    c2.4,0.3,3.9,1.3,3.9,3.2c0,2.2-1.9,3.6-5,3.6c-1.4,0-3.3-0.3-4.8-1.5l0.9-1.5c0.9,0.7,2,1.2,3.9,1.2c1.9,0,3-0.6,3-1.7
    c0-0.8-0.7-1.4-2.3-1.6l-1.3-0.2c-2.6-0.3-3.8-1.5-3.8-3.2c0-2.2,1.8-3.5,4.6-3.5c1.8,0,3.4,0.5,4.5,1.2L205.9,439.3z"/>
  <path d="M224.3,439.3c-0.7-0.5-2.2-1.1-3.7-1.1c-1.6,0-2.6,0.7-2.6,1.7c0,0.9,0.8,1.3,2.2,1.5l1.3,0.2
    c2.4,0.3,3.9,1.3,3.9,3.2c0,2.2-1.9,3.6-5,3.6c-1.4,0-3.3-0.3-4.8-1.5l0.9-1.5c0.9,0.7,2,1.2,3.9,1.2c1.9,0,3-0.6,3-1.7
    c0-0.8-0.7-1.4-2.3-1.6l-1.3-0.2c-2.6-0.3-3.8-1.5-3.8-3.2c0-2.2,1.8-3.5,4.6-3.5c1.8,0,3.4,0.5,4.5,1.2L224.3,439.3z"/>
  <path d="M247.4,441.1v7.1h-2v-6.4c0-2.1-1.2-3.3-3.1-3.3c-1.9,0-3.4,1.3-3.4,3.4v6.4h-2v-6.4c0-2.1-1.2-3.3-3.1-3.3
    c-1.8,0-3.4,1.3-3.4,3.4v6.4h-2v-11.4h1.9v1.5c0.9-1.3,2.4-1.7,3.7-1.7c1.9,0,3.5,0.9,4.2,2.3c0.9-1.7,2.7-2.3,4.2-2.3
    C245.5,436.5,247.4,438.3,247.4,441.1z"/>
  <path d="M262.3,448.2h-2v-1.5c-0.9,1.1-2.2,1.8-4,1.8c-3.2,0-5.7-2.5-5.7-5.9s2.5-5.9,5.7-5.9c1.8,0,3.1,0.7,4,1.8
    v-1.5h2V448.2z M252.6,442.5c0,2.3,1.6,4.1,3.9,4.1c2.3,0,3.9-1.8,3.9-4.1c0-2.3-1.6-4.1-3.9-4.1
    C254.1,438.4,252.6,440.2,252.6,442.5z"/>
  <path d="M268.4,448.2h-2v-17.3h2V448.2z"/>
  <path d="M274.5,448.2h-2v-17.3h2V448.2z"/>
  <path d="M292.6,438.5h-4.8v5.6c0,1.7,0.9,2.5,2.1,2.5c0.8,0,1.7-0.3,2.3-0.8l0.9,1.5c-0.9,0.6-2,1.1-3.4,1.1
    c-2.5,0-3.9-1.4-3.9-4.3v-5.6h-2.4v-1.8h2.4v-3.6h2v3.6h4.8V438.5z"/>
  <path d="M305.9,442.4c0,0.3,0,0.5,0,0.7h-9c0.3,2.4,1.9,3.5,3.9,3.5c1.3,0,2.5-0.5,3.5-1.4l1,1.3
    c-1.4,1.3-3,1.7-4.7,1.7c-3.4,0-5.8-2.4-5.8-5.9c0-3.5,2.4-5.9,5.7-5.9C303.6,436.5,305.9,438.9,305.9,442.4z M296.9,441.6h7
    c-0.2-2-1.5-3.3-3.4-3.3C298.5,438.3,297.2,439.6,296.9,441.6z"/>
  <path d="M314.1,442.3l4.5,5.8h-2.4l-3.4-4.4l-3.4,4.4h-2.3l4.5-5.8l-4.4-5.6h2.4l3.3,4.2l3.3-4.2h2.3L314.1,442.3z"/>
  <path d="M328.8,438.5H324v5.6c0,1.7,0.9,2.5,2.1,2.5c0.8,0,1.7-0.3,2.3-0.8l0.9,1.5c-0.9,0.6-2,1.1-3.4,1.1
    c-2.5,0-3.9-1.4-3.9-4.3v-5.6h-2.4v-1.8h2.4v-3.6h2v3.6h4.8V438.5z"/>
  <path d="M335.2,446.7c0,0.9-0.8,1.7-1.6,1.7c-0.9,0-1.6-0.8-1.6-1.7c0-0.9,0.8-1.6,1.6-1.6
    C334.5,445.1,335.2,445.9,335.2,446.7z"/>
</g>
</svg>
